<svg width="211" height="206" xmlns="http://www.w3.org/2000/svg" xmlns:xlink="http://www.w3.org/1999/xlink" xml:space="preserve" overflow="hidden"><g transform="translate(-1544 -1856)"><g><path d="M1651 1891.55C1650.08 1895.76 1648.93 1900.84 1647.56 1906.8 1646.18 1912.75 1644.76 1918.61 1643.29 1924.38 1641.82 1930.15 1640.53 1934.96 1639.43 1938.81L1628.14 1976.72 1674.14 1976.72 1662.84 1938.81C1661.93 1935.87 1660.69 1931.43 1659.12 1925.48 1657.56 1919.53 1656 1913.34 1654.44 1906.93 1652.88 1900.52 1651.73 1895.39 1651 1891.55ZM1620.43 1860.5 1681.02 1860.5 1748.5 2057.5 1697 2057.5 1684.6 2015.74 1617.67 2015.74 1605 2057.5 1553.5 2057.5Z" stroke="#1E3350" stroke-width="6.875" stroke-linecap="butt" stroke-linejoin="miter" stroke-miterlimit="8" stroke-opacity="1" fill="#1E3350" fill-rule="evenodd" fill-opacity="1"/></g></g></svg>