<svg width="225" height="207" xmlns="http://www.w3.org/2000/svg" xmlns:xlink="http://www.w3.org/1999/xlink" xml:space="preserve" overflow="hidden"><g transform="translate(-375 -1860)"><g><path d="M380.5 1866.5 443.706 1866.5 487.401 2011.44 488.5 2011.44 533.569 1866.5 596.5 1866.5 596.5 2062.5 553.08 2062.5 553.08 1973.01C553.08 1966.79 553.217 1959.88 553.492 1952.28 553.767 1944.69 554.042 1937.46 554.317 1930.6 554.592 1923.74 554.821 1918.47 555.004 1914.81L553.904 1914.81 508.561 2062.5 464.592 2062.5 420.622 1914.54 419.523 1914.54C419.889 1918.2 420.256 1923.46 420.622 1930.32 420.989 1937.19 421.355 1944.51 421.721 1952.28 422.088 1960.06 422.271 1967.34 422.271 1974.11L422.271 2062.5 380.5 2062.5Z" stroke="#1E3350" stroke-width="6.875" stroke-linecap="butt" stroke-linejoin="miter" stroke-miterlimit="8" stroke-opacity="1" fill="#1E3350" fill-rule="evenodd" fill-opacity="1"/></g></g></svg>