<svg width="202" height="216" xmlns="http://www.w3.org/2000/svg" xmlns:xlink="http://www.w3.org/1999/xlink" xml:space="preserve" overflow="hidden"><g transform="translate(-655 -1860)"><g><path d="M757.413 1905.25C746.592 1905.25 737.88 1907.77 731.277 1912.81 724.675 1917.85 719.814 1924.99 716.696 1934.25 713.578 1943.5 712.02 1954.54 712.02 1967.36 712.02 1980 713.578 1990.95 716.696 2000.2 719.814 2009.46 724.675 2016.56 731.277 2021.5 737.88 2026.45 746.5 2028.92 757.137 2028.92 767.775 2028.92 776.395 2026.45 782.998 2021.5 789.6 2016.56 794.369 2009.46 797.303 2000.2 800.238 1990.95 801.705 1980 801.705 1967.36 801.705 1948.12 798.312 1932.96 791.526 1921.88 784.74 1910.79 773.369 1905.25 757.413 1905.25ZM757.413 1866.5C779.055 1866.5 796.845 1870.67 810.784 1879 824.723 1887.34 834.993 1899.07 841.596 1914.18 848.199 1929.3 851.5 1947.03 851.5 1967.36 851.5 1982.57 849.62 1996.36 845.86 2008.72 842.1 2021.09 836.415 2031.76 828.803 2040.74 821.192 2049.72 811.426 2056.59 799.504 2061.35 787.583 2066.12 773.461 2068.5 757.137 2068.5 740.814 2068.5 726.692 2066.12 714.771 2061.35 702.849 2056.59 693.037 2049.72 685.334 2040.74 677.631 2031.76 671.899 2021.09 668.14 2008.72 664.38 1996.36 662.5 1982.48 662.5 1967.09 662.5 1946.75 665.893 1929.02 672.679 1913.91 679.465 1898.79 689.827 1887.11 703.766 1878.87 717.705 1870.62 735.587 1866.5 757.413 1866.5Z" stroke="#1E3350" stroke-width="6.875" stroke-linecap="butt" stroke-linejoin="miter" stroke-miterlimit="8" stroke-opacity="1" fill="#1E3350" fill-rule="evenodd" fill-opacity="1"/></g></g></svg>