<svg width="174" height="206" xmlns="http://www.w3.org/2000/svg" xmlns:xlink="http://www.w3.org/1999/xlink" xml:space="preserve" overflow="hidden"><g transform="translate(-912 -1856)"><g><path d="M963.647 1896.92 963.647 1947.69 977.353 1947.69C987.221 1947.69 994.942 1945.62 1000.52 1941.48 1006.09 1937.34 1008.88 1930.31 1008.88 1920.37 1008.88 1915.22 1007.82 1910.9 1005.72 1907.4 1003.62 1903.91 1000.24 1901.29 995.581 1899.54 990.921 1897.79 984.936 1896.92 977.627 1896.92ZM916.5 1860.5 978.449 1860.5C995.992 1860.5 1010.52 1862.66 1022.03 1866.98 1033.55 1871.31 1042.18 1877.74 1047.94 1886.3 1053.69 1894.85 1056.57 1905.47 1056.57 1918.17 1056.57 1926.63 1055.11 1934.21 1052.19 1940.93 1049.26 1947.64 1045.24 1953.48 1040.12 1958.45 1035.01 1963.41 1028.98 1967.65 1022.03 1971.14L1078.5 2057.5 1025.05 2057.5 982.287 1983.83 963.647 1983.83 963.647 2057.5 916.5 2057.5Z" stroke="#1E3350" stroke-width="6.875" stroke-linecap="butt" stroke-linejoin="miter" stroke-miterlimit="8" stroke-opacity="1" fill="#1E3350" fill-rule="evenodd" fill-opacity="1"/></g></g></svg>