<svg width="147" height="211" xmlns="http://www.w3.org/2000/svg" xmlns:xlink="http://www.w3.org/1999/xlink" xml:space="preserve" overflow="hidden"><g transform="translate(-2140 -1856)"><g><path d="M2218.13 1860.5C2229.65 1860.5 2240.26 1861.78 2249.96 1864.35 2259.66 1866.92 2269.08 1870.22 2278.23 1874.26L2263.41 1910.86C2254.62 1907.01 2246.44 1904.03 2238.84 1901.92 2231.25 1899.81 2223.89 1898.75 2216.75 1898.75 2211.81 1898.75 2207.7 1899.44 2204.4 1900.82 2201.11 1902.19 2198.64 1904.12 2196.99 1906.6 2195.35 1909.07 2194.52 1911.96 2194.52 1915.27 2194.52 1919.12 2195.81 1922.47 2198.37 1925.31 2200.93 1928.15 2204.95 1931.04 2210.44 1933.98 2215.93 1936.92 2223.16 1940.49 2232.12 1944.71 2241.82 1949.12 2250.14 1953.89 2257.09 1959.02 2264.05 1964.16 2269.35 1970.17 2273.01 1977.05 2276.67 1983.93 2278.5 1992.51 2278.5 2002.78 2278.5 2013.97 2275.76 2024.11 2270.27 2033.19 2264.78 2042.27 2256.55 2049.43 2245.57 2054.66 2234.59 2059.89 2220.78 2062.5 2204.13 2062.5 2196.45 2062.5 2189.31 2062.04 2182.72 2061.12 2176.14 2060.21 2169.87 2058.88 2163.93 2057.13 2157.98 2055.39 2152.17 2053.14 2146.5 2050.39L2146.5 2007.73C2156.38 2012.32 2166.49 2016.17 2176.82 2019.29 2187.16 2022.41 2197.09 2023.97 2206.6 2023.97 2212.64 2023.97 2217.53 2023.19 2221.28 2021.63 2225.03 2020.07 2227.78 2017.96 2229.51 2015.3 2231.25 2012.64 2232.12 2009.57 2232.12 2006.08 2232.12 2001.86 2230.7 1998.24 2227.87 1995.21 2225.03 1992.19 2220.87 1989.25 2215.38 1986.41 2209.89 1983.56 2203.21 1980.31 2195.35 1976.64 2189.49 1974.07 2183.78 1971.09 2178.2 1967.69 2172.62 1964.3 2167.58 1960.35 2163.1 1955.86 2158.62 1951.36 2155.05 1945.95 2152.4 1939.62 2149.75 1933.29 2148.42 1925.82 2148.42 1917.19 2148.42 1904.9 2151.3 1894.58 2157.07 1886.23 2162.83 1877.88 2170.92 1871.51 2181.35 1867.1 2191.78 1862.7 2204.04 1860.5 2218.13 1860.5Z" stroke="#1E3350" stroke-width="6.875" stroke-linecap="butt" stroke-linejoin="miter" stroke-miterlimit="8" stroke-opacity="1" fill="#1E3350" fill-rule="evenodd" fill-opacity="1"/></g></g></svg>