<svg width="1214" height="1233" xmlns="http://www.w3.org/2000/svg" xmlns:xlink="http://www.w3.org/1999/xlink" xml:space="preserve" overflow="hidden"><g transform="translate(9 -32)"><g><path d="M916.536 653.116 982.49 748.079C929.727 760.388 870.369 771.379 804.415 781.051 754.949 788.306 703.753 794.817 650.825 800.588L632.934 802.435 632.934 844.536 1084.06 807.43 1094.61 903.711 632.934 944.11 632.934 990.498 1160.57 947.235 1175.08 1042.2 632.939 1089.74 634.048 1104.64C636.273 1118.08 641.838 1126.94 650.742 1131.22 662.614 1136.94 688.775 1139.8 729.227 1139.8 736.262 1139.8 748.134 1139.8 764.842 1139.8 781.551 1139.8 800.458 1139.8 821.563 1139.8 842.668 1139.8 864.213 1139.8 886.197 1139.8 908.182 1139.8 928.188 1139.8 946.216 1139.8 964.243 1139.8 977.654 1139.8 986.447 1139.8 1007.55 1139.8 1023.16 1137.82 1033.28 1133.86 1043.39 1129.91 1050.86 1121.99 1055.7 1110.12 1060.54 1098.25 1064.27 1081.33 1066.91 1059.34 1082.74 1069.02 1103.19 1078.03 1128.25 1086.38 1153.31 1094.73 1176.4 1100.67 1197.5 1104.19 1192.22 1145.51 1182.55 1177.17 1168.48 1199.15 1154.41 1221.13 1134.18 1236.52 1107.8 1245.31 1081.42 1254.1 1046.25 1258.5 1002.28 1258.5 993.483 1258.5 979.412 1258.5 960.066 1258.5 940.719 1258.5 918.955 1258.5 894.772 1258.5 870.589 1258.5 846.406 1258.5 822.223 1258.5 798.039 1258.5 776.494 1258.5 757.587 1258.5 738.68 1258.5 725.27 1258.5 717.355 1258.5 655.799 1258.5 607.872 1253.88 573.576 1244.65 539.28 1235.42 515.536 1218.49 502.346 1193.87 492.452 1175.41 486.269 1151.26 483.796 1121.41L483.074 1102.88 16.9247 1143.75 2.41501 1042.2 482.56 1002.83 482.56 957.269 69.6879 993.397 57.8163 891.84 482.56 856.904 482.56 816.122 380.331 823.257C307.782 827.653 237.651 830.73 169.938 832.489 168.179 819.3 164.662 803.473 159.385 785.008 154.109 766.543 148.393 750.716 142.237 737.527 209.071 734.889 278.102 730.932 349.332 725.657 420.562 720.381 490.693 714.226 559.726 707.192 628.757 700.158 693.832 692.024 754.949 682.792 816.066 673.56 869.929 663.668 916.536 653.116ZM315.142 521.224 309.801 526.212C285.481 548.056 259.305 569.036 231.275 589.149L229.096 590.658 446.84 575.257 431.033 558.773C424.932 552.645 418.804 546.723 412.648 541.008L454.694 521.224ZM1065.59 402.522 1193.54 450.003C1160.13 486.053 1119.02 517.487 1070.21 544.305 1021.4 571.124 967.761 593.985 909.281 612.89 850.802 631.794 789.465 647.401 725.27 659.711 717.355 643.004 706.143 624.1 691.633 602.997 677.124 581.894 662.394 564.309 647.444 550.241 703.725 542.327 758.686 531.556 812.329 517.927 865.972 504.298 914.778 487.812 958.747 468.467 1002.72 449.124 1038.33 427.142 1065.59 402.522ZM1032.62 217.873 1155.29 269.311C1121.87 299.207 1082.96 326.684 1038.55 351.744 994.142 376.803 947.315 398.565 898.069 417.03 848.824 435.495 799.139 451.322 749.014 464.511 739.34 449.563 726.809 432.637 711.419 413.733 696.031 394.828 680.421 378.781 664.592 365.592 709.441 355.92 755.169 343.83 801.777 329.322 848.384 314.814 891.914 298.107 932.365 279.203 972.817 260.298 1006.23 239.855 1032.62 217.873ZM98.7072 66.1976 617.105 66.1976 617.105 159.84 241.168 159.84 241.168 196.77 574.895 196.77 574.895 274.587 241.168 274.587 241.168 311.516 574.895 311.516 574.895 390.652 241.168 390.652 241.168 427.581 664.592 427.581 664.592 521.224 526.94 521.224 540.434 534.248C553.075 546.889 565.661 560.352 578.193 574.641 603.255 603.217 621.503 628.936 632.934 651.798L537.961 697.96C535.103 692.244 531.86 686.323 528.232 680.195L516.461 661.613 501.614 662.926C418.944 670.235 351.256 676.198 298.548 680.813 238.31 686.089 191.922 690.486 159.385 694.003 126.848 697.52 103.324 700.598 88.8146 703.235 74.3043 705.873 63.0925 708.95 55.1782 712.468 51.6602 701.037 46.384 684.331 39.3488 662.349 32.3136 640.367 25.7182 622.342 19.5628 608.273 39.7887 604.756 61.3336 595.084 84.1976 579.257 92.1119 573.981 105.083 564.529 123.11 550.9 132.124 544.085 141.523 536.557 151.306 528.314L159.353 521.224-5.5 521.224-5.5 427.581 98.7072 427.581ZM989.086 38.5 1113.08 97.8513C1078.78 124.23 1039.65 149.069 995.681 172.37 951.712 195.671 906.863 216.554 861.135 235.019 815.407 253.484 770.558 269.311 726.589 282.5 716.036 268.432 702.626 252.165 686.357 233.7 670.089 215.235 653.6 199.408 636.892 186.219 676.464 176.547 718.455 164.017 762.863 148.63 807.273 133.242 849.483 116.097 889.495 97.1921 929.507 78.2876 962.704 58.7234 989.086 38.5Z" stroke="#1E3350" stroke-width="6.875" stroke-linecap="butt" stroke-linejoin="miter" stroke-miterlimit="8" stroke-opacity="1" fill="#1E3350" fill-rule="evenodd" fill-opacity="1"/></g></g></svg>